<?xml version="1.0" encoding="UTF-8"?>
<svg version="1.1" xmlns="http://www.w3.org/2000/svg" width="452" height="452">
<path d="M0 0 C0.97855957 0.19867676 1.95711914 0.39735352 2.96533203 0.60205078 C23.23745581 4.8208014 42.7449439 11.05305549 60.99755859 20.91845703 C63.14171298 22.07654091 65.2992534 23.20736993 67.45703125 24.33984375 C77.63423932 29.75882044 86.93711015 35.88107321 96 43 C96.97453125 43.76183594 97.9490625 44.52367187 98.953125 45.30859375 C105.92269017 50.89420241 112.49895024 56.88246541 119 63 C119.65871094 63.61617188 120.31742187 64.23234375 120.99609375 64.8671875 C126.14631516 69.83899477 130.55208317 75.4035257 135 81 C135.78375 81.95519531 136.5675 82.91039063 137.375 83.89453125 C168.65026519 122.93849212 184.21617359 172.45693462 184.25 222.0625 C184.25067474 222.95028137 184.25134949 223.83806274 184.25204468 224.75274658 C184.22663302 245.847271 182.52160774 265.83678457 176 286 C175.4785902 287.68992641 174.95778061 289.3800381 174.4375 291.0703125 C166.50801729 316.32068589 154.77243752 340.39297175 138 361 C137.28585937 361.90363281 136.57171875 362.80726563 135.8359375 363.73828125 C130.19724132 370.78167029 124.17947687 377.43312473 118 384 C117.38382812 384.65871094 116.76765625 385.31742187 116.1328125 385.99609375 C111.16100523 391.14631516 105.5964743 395.55208317 100 400 C99.04480469 400.78375 98.08960938 401.5675 97.10546875 402.375 C50.36784652 439.81309534 -9.76908764 453.5672405 -68.63671875 448.5390625 C-73.8151571 447.95903699 -78.9010523 447.06495192 -84 446 C-85.46783936 445.70198486 -85.46783936 445.70198486 -86.96533203 445.39794922 C-107.34700136 441.15640151 -126.79347585 434.83205202 -145.16162109 424.97363281 C-146.96392366 424.01910657 -148.78300397 423.11045605 -150.61328125 422.2109375 C-177.16677219 408.95386128 -200.8123391 388.34192581 -219 365 C-220.16402344 363.57880859 -220.16402344 363.57880859 -221.3515625 362.12890625 C-258.8303648 315.42912878 -272.56569776 255.21285067 -267.5390625 196.36328125 C-266.95903699 191.1848429 -266.06495192 186.0989477 -265 181 C-264.80132324 180.02144043 -264.60264648 179.04288086 -264.39794922 178.03466797 C-260.1791986 157.76254419 -253.94694451 138.2550561 -244.08154297 120.00244141 C-242.92345909 117.85828702 -241.79263007 115.7007466 -240.66015625 113.54296875 C-235.24117956 103.36576068 -229.11892679 94.06288985 -222 85 C-221.23816406 84.02546875 -220.47632813 83.0509375 -219.69140625 82.046875 C-214.10579759 75.07730983 -208.11753459 68.50104976 -202 62 C-201.38382812 61.34128906 -200.76765625 60.68257812 -200.1328125 60.00390625 C-195.16100523 54.85368484 -189.5964743 50.44791683 -184 46 C-183.04480469 45.21625 -182.08960938 44.4325 -181.10546875 43.625 C-131.92215694 4.22784138 -61.8142611 -12.91035328 0 0 Z " fill="#4C5164" transform="translate(268,3)"/>
<path d="M0 0 C0.91499771 0.38881851 1.82999542 0.77763702 2.77272034 1.17823792 C5.72788583 2.43590577 8.67835254 3.70421176 11.62890625 4.97265625 C13.68782861 5.85101659 15.74707566 6.72861623 17.80664062 7.60546875 C21.83480552 9.32156112 25.86133796 11.04138351 29.88623047 12.76513672 C35.97990855 15.37434265 42.08402616 17.95818713 48.19140625 20.53515625 C50.16022389 21.36832978 52.1289704 22.20167139 54.09765625 23.03515625 C61.96529894 26.36377431 69.83568935 29.68588236 77.70605469 33.00805664 C81.66812157 34.68059234 85.62968274 36.35431736 89.59082031 38.02905273 C97.99691792 41.58222794 106.40442745 45.13090965 114.83203125 48.6328125 C116.07104226 49.14955087 117.30997834 49.66646896 118.54882812 50.18359375 C120.7457451 51.09929202 122.94483923 52.00979143 125.14648438 52.9140625 C126.55317383 53.501875 126.55317383 53.501875 127.98828125 54.1015625 C128.78588867 54.43099854 129.58349609 54.76043457 130.40527344 55.09985352 C132.19140625 56.03515625 132.19140625 56.03515625 133.19140625 58.03515625 C133.29883211 60.25568741 133.33978207 62.47951178 133.35203552 64.7026062 C133.35966725 65.74224193 133.35966725 65.74224193 133.36745316 66.80288041 C133.38321051 69.1366513 133.39171124 71.47039117 133.40014648 73.80419922 C133.40968212 75.47286172 133.41957315 77.14152222 133.42979431 78.81018066 C133.46120663 84.29921107 133.48144599 89.78825679 133.5 95.27734375 C133.50329732 96.21036646 133.50659464 97.14338918 133.50999188 98.10468531 C133.54076854 106.8990807 133.56748357 115.69347944 133.58441067 124.48791313 C133.60633693 135.7486296 133.64834888 147.00887041 133.71784824 158.26939666 C133.765027 166.18110874 133.78933584 174.09269219 133.79660755 182.00454056 C133.80157228 186.73327644 133.81673078 191.46147646 133.85635185 196.19005966 C133.89312482 200.63730223 133.90165905 205.08370084 133.88834572 209.53106689 C133.88839982 211.16455582 133.89875854 212.79808127 133.92009735 214.43143082 C133.94765818 216.65989416 133.93833037 218.88525336 133.91966248 221.11373901 C133.92601038 222.98476949 133.92601038 222.98476949 133.93248653 224.89359856 C133.19140625 228.03515625 133.19140625 228.03515625 130.36122227 230.37228584 C126.98626823 232.14277068 123.62554996 233.60869566 120.06640625 234.97265625 C109.05288846 239.22411097 98.20903446 243.87173144 87.3515625 248.50366211 C68.05482467 256.73503037 48.71105837 264.84972533 29.34082031 272.90649414 C27.92014252 273.49765266 27.92014252 273.49765266 26.47076416 274.10075378 C24.58893324 274.8824587 22.70625219 275.66212048 20.82269287 276.43965149 C15.73623851 278.54246858 10.67316123 280.68878993 5.62890625 282.89111328 C4.54295166 283.35937027 3.45699707 283.82762726 2.33813477 284.31007385 C0.24737594 285.21253371 -1.83840286 286.126648 -3.91821289 287.05406189 C-10.87850424 290.03805607 -14.26181241 290.39178574 -21.42382812 287.65234375 C-22.7527636 287.07796696 -24.07882464 286.49690608 -25.40234375 285.91015625 C-26.46696838 285.44971924 -26.46696838 285.44971924 -27.55310059 284.97998047 C-30.5685562 283.67558744 -33.57713565 282.35564936 -36.58642578 281.03710938 C-38.79358431 280.07270093 -41.00408718 279.11628118 -43.21484375 278.16015625 C-43.88688843 277.86222168 -44.55893311 277.56428711 -45.25134277 277.25732422 C-49.08432529 275.60067781 -52.6296966 274.35843883 -56.80859375 274.03515625 C-59.07334793 275.56634124 -59.07334793 275.56634124 -60.87109375 277.84765625 C-64.37656518 281.89794533 -67.10136743 283.73172623 -72.4921875 284.3359375 C-78.0431263 284.35955852 -82.0490123 284.20821055 -86.80859375 281.03515625 C-88.10796875 280.19984375 -88.10796875 280.19984375 -89.43359375 279.34765625 C-93.3695188 275.51530818 -95.5463701 271.70109674 -96.08984375 266.17578125 C-96.13212354 262.18034087 -96.07793186 258.84317057 -94.80859375 255.03515625 C-95.85841431 254.86560425 -95.85841431 254.86560425 -96.92944336 254.69262695 C-100.12880555 253.96203403 -102.87086084 252.83728065 -105.875 251.515625 C-107.66804565 250.73203613 -107.66804565 250.73203613 -109.49731445 249.93261719 C-110.78860483 249.36269957 -112.07986389 248.79271098 -113.37109375 248.22265625 C-115.37718243 247.34316133 -117.38401345 246.46537647 -119.39091492 245.58773804 C-120.77096882 244.98414541 -122.1507779 244.37999273 -123.53034973 243.77529907 C-128.33620257 241.67076955 -133.15379934 239.59537004 -137.98046875 237.5390625 C-138.6287413 237.26269455 -139.27701385 236.9863266 -139.94493103 236.70158386 C-143.05728587 235.37542436 -146.17078336 234.05204449 -149.28540039 232.73120117 C-150.39262451 232.2591626 -151.49984863 231.78712402 -152.640625 231.30078125 C-153.61749268 230.88602539 -154.59436035 230.47126953 -155.60083008 230.04394531 C-157.80859375 229.03515625 -157.80859375 229.03515625 -158.80859375 228.03515625 C-158.91656453 225.85482666 -158.95274319 223.67094037 -158.9624939 221.48796082 C-158.96687615 220.79572475 -158.9712584 220.10348869 -158.97577345 219.39027578 C-158.98920755 217.0533941 -158.99535059 214.71655017 -159.00146484 212.37963867 C-159.00936218 210.71112394 -159.0176309 209.04261092 -159.02624512 207.37409973 C-159.05250771 201.87962485 -159.06777688 196.38514218 -159.08203125 190.890625 C-159.08738917 189.00211392 -159.09276667 187.1136029 -159.0981636 185.22509193 C-159.11979847 177.37157827 -159.13853658 169.5180667 -159.149786 161.66453075 C-159.16603338 150.39428391 -159.19922325 139.12438143 -159.25618684 127.85426444 C-159.29483832 119.93832359 -159.31441299 112.02247503 -159.31970656 104.10644227 C-159.32336661 99.3744113 -159.33545667 94.64274725 -159.3678093 89.9108181 C-159.39780586 85.45955469 -159.4042321 81.0088818 -159.39242554 76.55753899 C-159.39220409 74.92245029 -159.40056755 73.28733487 -159.41807938 71.65233994 C-159.44067064 69.42194399 -159.43252602 67.19370757 -159.41659546 64.96330261 C-159.41990561 63.71465014 -159.42321575 62.46599768 -159.42662621 61.17950726 C-158.80859375 58.03515625 -158.80859375 58.03515625 -156.43462563 55.68669605 C-153.80044262 54.03002992 -151.24007172 52.7062844 -148.37890625 51.484375 C-147.34483643 51.03723145 -146.3107666 50.59008789 -145.24536133 50.12939453 C-144.15247803 49.6651709 -143.05959473 49.20094727 -141.93359375 48.72265625 C-139.64787846 47.73566865 -137.36271815 46.74739476 -135.078125 45.7578125 C-133.98322754 45.2848877 -132.88833008 44.81196289 -131.76025391 44.32470703 C-128.34627664 42.83317453 -124.98249412 41.2663823 -121.62109375 39.66015625 C-112.86043562 35.51511343 -103.93843267 31.73183693 -95.03051758 27.91650391 C-88.1789641 24.97495018 -81.38858576 21.93428487 -74.64247131 18.75831604 C-67.49649563 15.40176551 -60.28272541 12.19980464 -53.06518555 9.00073242 C-49.97628088 7.63139064 -46.88928837 6.25775847 -43.80215454 4.88442993 C-41.55864107 3.89059454 -39.31046878 2.90788115 -37.06201172 1.92529297 C-34.30709399 0.71637309 -31.5896132 -0.54480016 -28.88720703 -1.86669922 C-28.27075821 -2.15782089 -27.65430939 -2.44894257 -27.0191803 -2.74888611 C-25.37815653 -3.52530287 -23.748228 -4.32505339 -22.11938477 -5.12670898 C-14.47836197 -7.06105241 -6.93943513 -3.00479106 0 0 Z " fill="#FAFAFA" transform="translate(240.80859375,52.96484375)"/>
<path d="M0 0 C0.33 0 0.66 0 1 0 C-1.68821033 32.25852392 -19.83858807 66.22919464 -40 91 C-40.71414063 91.90363281 -41.42828125 92.80726563 -42.1640625 93.73828125 C-47.80275868 100.78167029 -53.82052313 107.43312473 -60 114 C-60.61617188 114.65871094 -61.23234375 115.31742187 -61.8671875 115.99609375 C-66.83899477 121.14631516 -72.4035257 125.55208317 -78 130 C-78.95519531 130.78375 -79.91039062 131.5675 -80.89453125 132.375 C-127.63215348 169.81309534 -187.76908764 183.5672405 -246.63671875 178.5390625 C-251.8151571 177.95903699 -256.9010523 177.06495192 -262 176 C-263.46783936 175.70198486 -263.46783936 175.70198486 -264.96533203 175.39794922 C-285.34700136 171.15640151 -304.79347585 164.83205202 -323.16162109 154.97363281 C-324.96392366 154.01910657 -326.78300397 153.11045605 -328.61328125 152.2109375 C-355.0260982 139.02409407 -379.06734558 118.40363373 -397 95 C-398.13501953 93.52080078 -398.13501953 93.52080078 -399.29296875 92.01171875 C-405.0582974 84.30760702 -405.0582974 84.30760702 -406 80 C-403.02076997 79.97272322 -400.04179621 79.95302872 -397.0625 79.9375 C-396.23169922 79.92912109 -395.40089844 79.92074219 -394.54492188 79.91210938 C-389.80328258 79.89365942 -385.21710636 80.1363463 -380.51342773 80.71704102 C-375.02590086 81.33482087 -369.50910673 81.63763327 -364 82 C-362.83855469 82.0825 -361.67710937 82.165 -360.48046875 82.25 C-333.76966651 84.01054721 -306.94809884 84.24509587 -280.1875 84.25 C-279.44042912 84.25029457 -278.69335823 84.25058914 -277.92364883 84.25089264 C-235.24658921 84.253587 -193.10201138 82.41089692 -151 75 C-150.31129822 74.87957336 -149.62259644 74.75914673 -148.9130249 74.6350708 C-139.0669959 72.89794851 -129.32516702 70.80437913 -119.625 68.375 C-118.94123291 68.20392731 -118.25746582 68.03285461 -117.55297852 67.8565979 C-73.95084941 56.85848087 -30.51935226 38.20690626 -1.86328125 2.23828125 C-0.94095703 1.13033203 -0.94095703 1.13033203 0 0 Z " fill="#5293E0" transform="translate(446,273)"/>
<path d="M0 0 C10.36941867 9.03234685 18.79448381 20.99556447 21.84765625 34.60546875 C21.53515625 37.66796875 21.53515625 37.66796875 20.84765625 39.60546875 C20.18765625 39.60546875 19.52765625 39.60546875 18.84765625 39.60546875 C18.84765625 40.26546875 18.84765625 40.92546875 18.84765625 41.60546875 C19.50765625 41.60546875 20.16765625 41.60546875 20.84765625 41.60546875 C20.84765625 43.25546875 20.84765625 44.90546875 20.84765625 46.60546875 C21.50765625 46.60546875 22.16765625 46.60546875 22.84765625 46.60546875 C22.53515625 48.54296875 22.53515625 48.54296875 21.84765625 50.60546875 C20.36265625 51.10046875 20.36265625 51.10046875 18.84765625 51.60546875 C18.84765625 52.26546875 18.84765625 52.92546875 18.84765625 53.60546875 C19.50765625 53.60546875 20.16765625 53.60546875 20.84765625 53.60546875 C23.26869088 63.59223659 20.39871875 71.75732462 15.84765625 80.60546875 C6.17511151 96.28420318 -7.77920172 106.80382223 -25.52734375 111.60546875 C-43.23616382 114.99324302 -60.88392431 112.55879475 -76.15234375 102.60546875 C-86.18318318 95.10353521 -96.18966482 84.7071794 -100.15234375 72.60546875 C-100.20996712 69.72910235 -99.7612518 67.44703965 -99.15234375 64.60546875 C-99.48234375 63.94546875 -99.81234375 63.28546875 -100.15234375 62.60546875 C-101.14234375 62.27546875 -102.13234375 61.94546875 -103.15234375 61.60546875 C-103.15234375 60.61546875 -103.15234375 59.62546875 -103.15234375 58.60546875 C-101.66734375 58.11046875 -101.66734375 58.11046875 -100.15234375 57.60546875 C-100.15234375 56.94546875 -100.15234375 56.28546875 -100.15234375 55.60546875 C-100.64734375 56.59546875 -100.64734375 56.59546875 -101.15234375 57.60546875 C-101.81234375 57.60546875 -102.47234375 57.60546875 -103.15234375 57.60546875 C-103.48234375 53.97546875 -103.81234375 50.34546875 -104.15234375 46.60546875 C-102.17234375 46.11046875 -102.17234375 46.11046875 -100.15234375 45.60546875 C-100.15234375 44.94546875 -100.15234375 44.28546875 -100.15234375 43.60546875 C-100.48234375 44.26546875 -100.81234375 44.92546875 -101.15234375 45.60546875 C-101.81234375 45.60546875 -102.47234375 45.60546875 -103.15234375 45.60546875 C-103.03882858 43.79221324 -102.91121414 41.97983518 -102.77734375 40.16796875 C-102.70773438 39.15863281 -102.638125 38.14929688 -102.56640625 37.109375 C-102.42976562 36.28308594 -102.293125 35.45679688 -102.15234375 34.60546875 C-101.16234375 34.11046875 -101.16234375 34.11046875 -100.15234375 33.60546875 C-99.90783403 32.05086993 -99.73397083 30.48506475 -99.58984375 28.91796875 C-97.28536601 15.162559 -85.74836972 3.1702407 -74.83984375 -4.70703125 C-51.63544958 -19.24074432 -21.33746846 -16.20801508 0 0 Z " fill="#4E5366" transform="translate(296.15234375,158.39453125)"/>
<path d="M0 0 C13.04648336 5.21859334 26.04964734 10.54721993 39 16 C39.33 30.19 39.66 44.38 40 59 C46.17026246 62.14252309 52.34297841 65.27866262 58.52416992 68.39941406 C60.62593258 69.46286671 62.72588615 70.52990267 64.82397461 71.60058594 C67.84019941 73.13902471 70.86269715 74.66445618 73.88671875 76.1875 C74.82335861 76.66872314 75.75999847 77.14994629 76.72502136 77.64575195 C77.60555679 78.0862085 78.48609222 78.52666504 79.39331055 78.98046875 C80.16386276 79.37129639 80.93441498 79.76212402 81.72831726 80.16479492 C84.30948182 81.11378384 86.27023577 81.22648691 89 81 C91.15456969 78.84543031 90.26026626 73.9288373 90.31640625 70.93359375 C90.3475779 69.57065941 90.3475779 69.57065941 90.37937927 68.18019104 C90.44497672 65.26604054 90.5038068 62.35179696 90.5625 59.4375 C90.60567554 57.46678709 90.64928951 55.49608374 90.69335938 53.52539062 C90.80066843 48.68369012 90.90190675 43.84189563 91 39 C92.60198928 39.47381986 94.20345086 39.9494241 95.8046875 40.42578125 C96.69655762 40.69044189 97.58842773 40.95510254 98.50732422 41.2277832 C101.067828 42.02101273 103.54022623 42.93409803 106 44 C104.65833337 47.57138879 103.04276526 50.76851459 101.125 54.0625 C92.26913355 70.10699153 91.09347611 87.25890744 95 105 C95.25716797 106.20849609 95.25716797 106.20849609 95.51953125 107.44140625 C98.74589363 120.07625763 105.7989819 130.94807247 115 140 C113.73420531 143.75263377 112.47163895 145.84665788 109.375 148.3125 C108.74335938 148.82425781 108.11171875 149.33601562 107.4609375 149.86328125 C106.97882813 150.23839844 106.49671875 150.61351562 106 151 C105.38125 150.67 104.7625 150.34 104.125 150 C98.19174748 148.10135919 93.03748621 147.96338421 87.4375 150.8125 C83.11990298 154.40715054 79.79720025 158.95675848 76.33447266 163.34667969 C73.29104673 167.11727617 70.07797489 170.74889881 66.89770508 174.40405273 C64.16098271 177.50137144 64.16098271 177.50137144 62 181 C58.36092972 180.38232513 55.23006171 179.37948643 51.84594727 177.91455078 C50.84463272 177.48385284 49.84331818 177.05315491 48.81166077 176.60940552 C47.74072678 176.14275482 46.66979279 175.67610413 45.56640625 175.1953125 C44.45571274 174.71552948 43.34501923 174.23574646 42.20066833 173.74142456 C39.85373732 172.72654717 37.5078176 171.70932838 35.1628418 170.68994141 C31.5814535 169.13323842 27.99708901 167.58356811 24.41210938 166.03515625 C22.13003018 165.04728645 19.84812336 164.05901834 17.56640625 163.0703125 C16.49749649 162.60771027 15.42858673 162.14510803 14.32728577 161.66848755 C13.32281906 161.23148529 12.31835236 160.79448303 11.28344727 160.34423828 C9.96704002 159.77251389 9.96704002 159.77251389 8.6240387 159.1892395 C5.71313887 157.86999178 2.85849644 156.42924822 0 155 C0 103.85 0 52.7 0 0 Z " fill="#4D5264" transform="translate(91,120)"/>
<path d="M0 0 C0 51.48 0 102.96 0 156 C-51.23922868 177.634341 -51.23922868 177.634341 -69.4375 185.1875 C-81.10483121 190.03472162 -92.76791762 194.89063145 -104.40234375 199.81640625 C-105.29878098 200.19560715 -106.1952182 200.57480804 -107.11882019 200.96549988 C-111.33308918 202.74861937 -115.54569096 204.53550438 -119.75561523 206.32885742 C-121.23025067 206.95374384 -122.70493817 207.57850742 -124.1796875 208.203125 C-124.84802109 208.48954361 -125.51635468 208.77596222 -126.2049408 209.07106018 C-130.77305215 211 -130.77305215 211 -133 211 C-133 193.18 -133 175.36 -133 157 C-129.04 157.66 -125.08 158.32 -121 159 C-98.22781158 160.45094427 -79.26734119 157.15198763 -61.33984375 142.11328125 C-47.7626738 129.85076215 -38.62553455 113.16344608 -37.5234375 94.765625 C-36.78350554 72.78708328 -41.84940595 54.52792078 -57 38 C-60.24189792 34.887778 -63.57340954 31.90698453 -67 29 C-64.90389735 26.69534452 -63.10751763 25.4143194 -60.22900391 24.24169922 C-59.47551163 23.93034531 -58.72201935 23.61899139 -57.94569397 23.29820251 C-57.13088058 22.97034256 -56.3160672 22.6424826 -55.4765625 22.3046875 C-54.62642075 21.95543716 -53.77627899 21.60618683 -52.90037537 21.24635315 C-50.14465615 20.11574096 -47.38490319 18.99535497 -44.625 17.875 C-41.81206876 16.72418756 -39.00018905 15.570835 -36.18843079 14.41716003 C-34.34167273 13.65950816 -32.49457759 12.90267738 -30.6471405 12.14668274 C-22.90848205 8.97627338 -15.2175529 5.70636778 -7.56298828 2.33740234 C-2.2043251 0 -2.2043251 0 0 0 Z " fill="#4D5265" transform="translate(365,120)"/>
<path d="M0 0 C0.33 0 0.66 0 1 0 C0.50596529 9.05730307 -2.32226777 17.39370934 -5 26 C-5.66 26 -6.32 26 -7 26 C-7.32291016 27.59134766 -7.32291016 27.59134766 -7.65234375 29.21484375 C-10.70286562 39.69821614 -29.49541638 46.91620726 -38.33984375 51.81542969 C-55.17417683 60.9882396 -72.23226093 68.55436983 -90.27880859 75.02001953 C-92.68993074 75.88833501 -95.09039412 76.77954393 -97.48828125 77.68359375 C-126.56131559 88.52613754 -157.47020779 92.96420611 -188.1875 96.25 C-188.89375519 96.32704163 -189.60001038 96.40408325 -190.32766724 96.48345947 C-219.57805344 99.62138281 -248.8316173 100.37520753 -278.22358704 100.3172493 C-280.97787938 100.31242934 -283.73215394 100.31140799 -286.4864502 100.31100464 C-314.19684486 100.29641433 -341.73052392 99.58083512 -369.36352539 97.36206055 C-375.16572142 96.89850708 -380.97360251 96.55025175 -386.78393555 96.20654297 C-387.84523682 96.13838379 -388.90653809 96.07022461 -390 96 C-390.82604736 95.95117676 -391.65209473 95.90235352 -392.50317383 95.85205078 C-395.86355485 95.37956567 -397.74436119 94.28421021 -399.9921875 91.78515625 C-402.79428456 87.95337292 -404.95238997 84.64442497 -406 80 C-403.02076997 79.97272322 -400.04179621 79.95302872 -397.0625 79.9375 C-396.23169922 79.92912109 -395.40089844 79.92074219 -394.54492188 79.91210938 C-389.80328258 79.89365942 -385.21710636 80.1363463 -380.51342773 80.71704102 C-375.02590086 81.33482087 -369.50910673 81.63763327 -364 82 C-362.83855469 82.0825 -361.67710937 82.165 -360.48046875 82.25 C-333.76966651 84.01054721 -306.94809884 84.24509587 -280.1875 84.25 C-279.44042912 84.25029457 -278.69335823 84.25058914 -277.92364883 84.25089264 C-235.24658921 84.253587 -193.10201138 82.41089692 -151 75 C-150.31129822 74.87957336 -149.62259644 74.75914673 -148.9130249 74.6350708 C-139.0669959 72.89794851 -129.32516702 70.80437913 -119.625 68.375 C-118.94123291 68.20392731 -118.25746582 68.03285461 -117.55297852 67.8565979 C-73.95084941 56.85848087 -30.51935226 38.20690626 -1.86328125 2.23828125 C-0.94095703 1.13033203 -0.94095703 1.13033203 0 0 Z " fill="#FBFBFC" transform="translate(446,273)"/>
<path d="M0 0 C1.35351562 0.59071289 1.35351562 0.59071289 2.734375 1.19335938 C3.65476562 1.60521484 4.57515625 2.01707031 5.5234375 2.44140625 C7.36963381 3.25296338 9.21598304 4.06417271 11.0625 4.875 C12.27607178 5.4153186 12.27607178 5.4153186 13.51416016 5.96655273 C15.95713785 7.02944565 18.42023113 8.0263334 20.8984375 9.00390625 C18.24152499 11.11687802 15.74355312 12.65285788 12.61499023 13.96166992 C11.77568466 14.31601608 10.93637909 14.67036224 10.07164001 15.03544617 C9.16756912 15.41046768 8.26349823 15.7854892 7.33203125 16.171875 C6.38393082 16.57038162 5.43583038 16.96888824 4.45899963 17.37947083 C1.42014856 18.65536542 -1.62186217 19.92352119 -4.6640625 21.19140625 C-6.65321075 22.0248754 -8.64214523 22.85885495 -10.63085938 23.69335938 C-14.57147046 25.34603559 -18.51323438 26.99591203 -22.45605469 28.64331055 C-37.23331786 34.81909129 -51.98449483 41.05713549 -66.7265625 47.31640625 C-68.01554443 47.86359818 -68.01554443 47.86359818 -69.33056641 48.42184448 C-83.64074172 54.5001876 -97.89004367 60.69754477 -112.1015625 67.00390625 C-112.4315625 80.53390625 -112.7615625 94.06390625 -113.1015625 108.00390625 C-117.41749003 106.27753524 -121.52537417 104.34923788 -125.6640625 102.25390625 C-127.08328912 101.53897473 -128.50256043 100.82413191 -129.921875 100.109375 C-130.62344727 99.75536621 -131.32501953 99.40135742 -132.04785156 99.03662109 C-133.95560492 98.07730147 -135.86714284 97.12625282 -137.78125 96.1796875 C-139.39386719 95.38111328 -139.39386719 95.38111328 -141.0390625 94.56640625 C-142.47572266 93.85677734 -142.47572266 93.85677734 -143.94140625 93.1328125 C-146.1015625 92.00390625 -146.1015625 92.00390625 -147.1015625 91.00390625 C-147.19014896 88.2649654 -147.21679729 85.55137355 -147.19921875 82.8125 C-147.1978038 81.99266129 -147.19638885 81.17282257 -147.19493103 80.32814026 C-147.18931539 77.69919243 -147.17676029 75.07032852 -147.1640625 72.44140625 C-147.15904951 70.66341268 -147.15448626 68.88541779 -147.15039062 67.10742188 C-147.13934089 62.7395508 -147.12206581 58.37174277 -147.1015625 54.00390625 C-146.52341797 53.75970947 -145.94527344 53.5155127 -145.34960938 53.26391602 C-142.43340899 52.0318495 -139.51746009 50.79918921 -136.6015625 49.56640625 C-135.46750977 49.08703613 -134.33345703 48.60766602 -133.16503906 48.11376953 C-125.85291512 45.02128441 -118.54579388 41.91723597 -111.2421875 38.8046875 C-107.77875778 37.32916415 -104.31520221 35.85393659 -100.8515625 34.37890625 C-99.98534271 34.00995239 -99.11912292 33.64099854 -98.22665405 33.26086426 C-87.53082746 28.70732054 -76.83091832 24.17245065 -66.03222656 19.86669922 C-61.66027022 18.11053226 -57.37583334 16.22204528 -53.10546875 14.23046875 C-45.79633435 10.83254475 -38.41361097 7.62820532 -30.97900391 4.51489258 C-29.46375422 3.8768322 -27.95140613 3.23184154 -26.44189453 2.58032227 C-24.22293352 1.62331492 -21.99574643 0.68846374 -19.765625 -0.2421875 C-18.76542831 -0.6810453 -18.76542831 -0.6810453 -17.74502563 -1.12876892 C-11.26482842 -3.77885699 -6.2308336 -2.75777809 0 0 Z " fill="#4D5265" transform="translate(286.1015625,81.99609375)"/>
<path d="M0 0 C0.74617584 0.30932968 1.49235168 0.61865936 2.26113892 0.93736267 C4.62712561 1.9197772 6.98934489 2.91090556 9.3515625 3.90234375 C10.96199813 4.57284586 12.5726729 5.24277389 14.18359375 5.91210938 C18.11738209 7.54805653 22.04781711 9.19182477 25.9765625 10.83984375 C25.9765625 11.82984375 25.9765625 12.81984375 25.9765625 13.83984375 C25.22673096 14.14164551 24.47689941 14.44344727 23.7043457 14.75439453 C20.8535208 15.90366276 18.0039123 17.05588827 15.1550293 18.20996094 C13.34317283 18.94295324 11.53000397 19.6726989 9.71679688 20.40234375 C4.08745056 22.68492801 -1.48835556 25.02096791 -6.984375 27.609375 C-15.80079461 31.7320314 -24.81626992 35.38261746 -33.80935669 39.09939575 C-51.42854962 46.38364246 -68.99592719 53.76870735 -86.46484375 61.40625 C-87.44469238 61.8305127 -88.42454102 62.25477539 -89.43408203 62.69189453 C-91.00193648 63.38697766 -92.55922504 64.10767432 -94.09326172 64.87451172 C-98.51980961 67.04443602 -101.24564644 66.77985526 -106.0234375 65.83984375 C-108.28605661 65.04356434 -110.52154588 64.16680023 -112.7265625 63.22265625 C-113.63326691 62.83592239 -113.63326691 62.83592239 -114.55828857 62.44137573 C-115.82383092 61.89910862 -117.0875967 61.35267778 -118.34960938 60.80224609 C-120.27765703 59.96300708 -122.21238197 59.14088259 -124.1484375 58.3203125 C-125.38324431 57.78876241 -126.61763476 57.25624383 -127.8515625 56.72265625 C-128.9643457 56.24199707 -130.07712891 55.76133789 -131.22363281 55.26611328 C-133.71495598 53.99698964 -135.24015285 52.95212175 -137.0234375 50.83984375 C-123.27291004 44.43440236 -109.49403349 38.11831105 -95.59545898 32.03979492 C-89.09152615 29.1938535 -82.60307165 26.31650369 -76.12841797 23.40454102 C-73.19159901 22.08406447 -70.25281866 20.76808131 -67.31323242 19.45378113 C-66.69295166 19.17641617 -66.0726709 18.89905121 -65.43359375 18.61328125 C-64.79623291 18.32830276 -64.15887207 18.04332428 -63.50219727 17.74971008 C-58.58158627 15.54607569 -53.6723776 13.31796108 -48.76489258 11.08526611 C-44.8506016 9.30839046 -40.93043759 7.54472387 -37.00921631 5.78320312 C-35.06894312 4.90816605 -33.13112043 4.0276738 -31.19586182 3.14160156 C-28.46879825 1.89392157 -25.73369748 0.66575027 -22.99609375 -0.55859375 C-22.17854111 -0.93809174 -21.36098846 -1.31758972 -20.5186615 -1.70858765 C-12.65777694 -5.17875197 -7.58658009 -3.204677 0 0 Z " fill="#4E5265" transform="translate(236.0234375,61.16015625)"/>
<path d="M0 0 C0.74759079 0.30932968 1.49518158 0.61865936 2.26542664 0.93736267 C4.6409822 1.92143555 7.0138598 2.91178877 9.38671875 3.90234375 C11.00178018 4.57268247 12.61701277 5.24260895 14.23242188 5.91210938 C18.18168592 7.54991957 22.12856112 9.19336538 26.07421875 10.83984375 C26.07421875 11.49984375 26.07421875 12.15984375 26.07421875 12.83984375 C24.89077881 13.3085791 23.70733887 13.77731445 22.48803711 14.26025391 C9.47448097 19.43102131 -3.45541458 24.7863953 -16.36328125 30.21484375 C-19.24444873 31.42489061 -22.12581475 32.63446258 -25.00733948 33.84365845 C-26.77723046 34.5865375 -28.54688768 35.32997383 -30.31626892 36.07406616 C-31.86290641 36.72384313 -33.41039523 37.37159957 -34.95895386 38.01678467 C-36.58061856 38.69540337 -38.19567774 39.38978453 -39.80883789 40.08837891 C-44.89260113 41.89299467 -50.01833236 39.51177825 -54.86328125 37.83984375 C-72.36007524 31.8632161 -91.20224254 34.55453206 -107.92578125 41.83984375 C-113.59410101 44.84620575 -118.40685464 48.09229755 -122.73828125 52.83984375 C-125.56115392 55.81656966 -125.56115392 55.81656966 -128.86328125 56.02734375 C-132.69396477 54.54197667 -136.32069534 52.80708606 -139.92578125 50.83984375 C-137.78802478 48.47952085 -135.92176656 47.20445681 -132.98706055 45.98974609 C-132.19666885 45.65834625 -131.40627716 45.32694641 -130.5919342 44.98550415 C-129.73659592 44.63579559 -128.88125763 44.28608704 -128 43.92578125 C-127.10860825 43.55456146 -126.21721649 43.18334167 -125.29881287 42.8008728 C-122.40651436 41.59845181 -119.50998648 40.40660445 -116.61328125 39.21484375 C-114.63433763 38.39419399 -112.6556591 37.5729047 -110.67724609 36.75097656 C-100.04162293 32.33800833 -89.40170664 27.92882049 -78.7097168 23.65380859 C-74.51838975 21.96470426 -70.41482788 20.14743151 -66.32421875 18.2265625 C-57.17798529 13.97519601 -47.8759457 10.09235611 -38.56640625 6.21459961 C-36.45599667 5.33280145 -34.34794601 4.4453383 -32.2421875 3.55249023 C-29.17310481 2.25149698 -26.09734807 0.96766938 -23.01953125 -0.3125 C-22.07992554 -0.71444077 -21.14031982 -1.11638153 -20.17224121 -1.53050232 C-19.29362427 -1.89160599 -18.41500732 -2.25270966 -17.50976562 -2.62475586 C-16.74289429 -2.9464122 -15.97602295 -3.26806854 -15.18591309 -3.59947205 C-9.86992179 -4.91824129 -4.83755103 -2.0287577 0 0 Z " fill="#4F5466" transform="translate(330.92578125,101.16015625)"/>
<path d="M0 0 C4.60347353 1.67790157 8.08316177 4.97098138 11.08984375 8.76171875 C11.76001408 12.78274071 10.89578279 14.55612227 8.6640625 17.89453125 C6.56978613 20.61215755 4.35152462 23.18134649 2.08984375 25.76171875 C1.04189585 26.98084941 -0.00491317 28.20095964 -1.05078125 29.421875 C-3.81469696 32.63908422 -6.59846913 35.8382328 -9.39306641 39.02880859 C-10.74990042 40.57866502 -12.10184366 42.13279996 -13.453125 43.6875 C-14.51466797 44.89986328 -14.51466797 44.89986328 -15.59765625 46.13671875 C-16.19964844 46.82507813 -16.80164063 47.5134375 -17.421875 48.22265625 C-19.72780314 50.60726435 -20.83870351 50.75632609 -24.22265625 51.01171875 C-28.2090824 50.74145257 -29.86561209 50.29883889 -32.91015625 47.76171875 C-35.5713102 43.63234193 -36.3930993 40.63394168 -35.91015625 35.76171875 C-34.36328125 33.26171875 -34.36328125 33.26171875 -32.16015625 30.76171875 C-31.34160156 29.81425781 -30.52304688 28.86679687 -29.6796875 27.890625 C-29.23318848 27.3867627 -28.78668945 26.88290039 -28.32666016 26.36376953 C-26.32232929 24.09689274 -24.35701053 21.79732132 -22.38916016 19.4987793 C-21.36374069 18.3016987 -20.33607765 17.10653622 -19.30615234 15.91333008 C-15.55383219 11.55776437 -11.95077395 7.10327709 -8.43359375 2.5546875 C-5.90771102 -0.41808217 -3.81180954 -0.62052714 0 0 Z " fill="#4E5366" transform="translate(189.91015625,277.23828125)"/>
<path d="M0 0 C1.48030272 0.81042836 2.95921142 1.62340348 4.4375 2.4375 C5.67306641 3.11619141 5.67306641 3.11619141 6.93359375 3.80859375 C9 5 9 5 10 6 C10.09376053 7.81055025 10.1174411 9.62477201 10.11352539 11.43774414 C10.11344986 12.59887222 10.11337433 13.76000031 10.11329651 14.95631409 C10.10813522 16.219832 10.10297394 17.48334991 10.09765625 18.78515625 C10.0962413 20.07111191 10.09482635 21.35706757 10.09336853 22.68199158 C10.08954418 26.10643443 10.07971462 29.53083509 10.06866455 32.95526123 C10.05844864 36.44738189 10.05387053 39.93950934 10.04882812 43.43164062 C10.03809227 50.28777778 10.02101684 57.14388687 10 64 C5.99666321 63.25686878 2.57464421 62.10341895 -1.17578125 60.49609375 C-2.91118164 59.75649414 -2.91118164 59.75649414 -4.68164062 59.00195312 C-5.87982422 58.48568359 -7.07800781 57.96941406 -8.3125 57.4375 C-9.54213081 56.9116721 -10.77194678 56.38627697 -12.00195312 55.86132812 C-15.00315052 54.57846336 -18.00238815 53.29121552 -21 52 C-21 47.82087727 -19.24273197 46.84424461 -16.375 43.875 C-9.38381888 36.46660123 -3.64769902 29.80689953 -3.69921875 19.296875 C-4.1698941 15.70262686 -5.72643037 13.77091299 -8 11 C-6.63629701 8.00779732 -5.05091917 5.70973471 -2.875 3.25 C-2.33617187 2.63640625 -1.79734375 2.0228125 -1.2421875 1.390625 C-0.83226562 0.93171875 -0.42234375 0.4728125 0 0 Z " fill="#515668" transform="translate(213,267)"/>
<path d="M0 0 C1.60198928 0.47381986 3.20345086 0.9494241 4.8046875 1.42578125 C6.14249268 1.82277222 6.14249268 1.82277222 7.50732422 2.2277832 C10.067828 3.02101273 12.54022623 3.93409803 15 5 C13.65833337 8.57138879 12.04276526 11.76851459 10.125 15.0625 C5.81895042 22.86392478 2.8096633 31.0937037 2 40 C-0.55781522 36.16327717 -0.25306456 33.05464013 -0.1953125 28.61328125 C-0.1924826 27.79627243 -0.18965271 26.97926361 -0.18673706 26.13749695 C-0.17554541 23.52901541 -0.1504429 20.9208777 -0.125 18.3125 C-0.11496888 16.54362475 -0.10584326 14.77474412 -0.09765625 13.00585938 C-0.07560942 8.67044051 -0.0410867 4.33527855 0 0 Z " fill="#575C6D" transform="translate(182,159)"/>
<path d="M0 0 C2.625 0.375 2.625 0.375 5 1 C5 3.31 5 5.62 5 8 C2.625 8.625 2.625 8.625 0 9 C-2 7 -2 7 -2.25 4.5 C-2 2 -2 2 0 0 Z " fill="#C4C5CC" transform="translate(308,208)"/>
<path d="M0 0 C2.625 0.375 2.625 0.375 5 1 C5 3.31 5 5.62 5 8 C2.625 8.625 2.625 8.625 0 9 C-2 7 -2 7 -2.25 4.5 C-2 2 -2 2 0 0 Z " fill="#C4C5CC" transform="translate(284,208)"/>
<path d="M0 0 C2.625 0.375 2.625 0.375 5 1 C5 3.31 5 5.62 5 8 C2.625 8.625 2.625 8.625 0 9 C-2 7 -2 7 -2.25 4.5 C-2 2 -2 2 0 0 Z " fill="#C4C5CC" transform="translate(260,208)"/>
<path d="M0 0 C2.625 0.375 2.625 0.375 5 1 C5 3.31 5 5.62 5 8 C2.625 8.625 2.625 8.625 0 9 C-2 7 -2 7 -2.25 4.5 C-2 2 -2 2 0 0 Z " fill="#C4C5CC" transform="translate(240,208)"/>
<path d="M0 0 C2.625 0.375 2.625 0.375 5 1 C5 3.31 5 5.62 5 8 C2.625 8.625 2.625 8.625 0 9 C-2 7 -2 7 -2.25 4.5 C-2 2 -2 2 0 0 Z " fill="#C4C5CC" transform="translate(216,208)"/>
<path d="M0 0 C2.625 0.375 2.625 0.375 5 1 C5 3.31 5 5.62 5 8 C2.625 8.625 2.625 8.625 0 9 C-2 7 -2 7 -2.25 4.5 C-2 2 -2 2 0 0 Z " fill="#C4C5CC" transform="translate(292,196)"/>
<path d="M0 0 C2.625 0.375 2.625 0.375 5 1 C5 3.31 5 5.62 5 8 C2.625 8.625 2.625 8.625 0 9 C-2 7 -2 7 -2.25 4.5 C-2 2 -2 2 0 0 Z " fill="#C4C5CC" transform="translate(260,196)"/>
<path d="M0 0 C2.625 0.375 2.625 0.375 5 1 C5 3.31 5 5.62 5 8 C2.625 8.625 2.625 8.625 0 9 C-2 7 -2 7 -2.25 4.5 C-2 2 -2 2 0 0 Z " fill="#C4C5CC" transform="translate(240,196)"/>
<path d="M0 0 C2.625 0.375 2.625 0.375 5 1 C5 3.31 5 5.62 5 8 C2.625 8.625 2.625 8.625 0 9 C-2 7 -2 7 -2.25 4.5 C-2 2 -2 2 0 0 Z " fill="#C4C5CC" transform="translate(216,196)"/>
<path d="M0 0 C2.625 0.375 2.625 0.375 5 1 C5 3.31 5 5.62 5 8 C2.625 8.625 2.625 8.625 0 9 C-2 7 -2 7 -2.25 4.5 C-2 2 -2 2 0 0 Z " fill="#C4C5CC" transform="translate(284,184)"/>
<path d="M0 0 C2.625 0.375 2.625 0.375 5 1 C5 3.31 5 5.62 5 8 C2.625 8.625 2.625 8.625 0 9 C-2 7 -2 7 -2.25 4.5 C-2 2 -2 2 0 0 Z " fill="#C4C5CC" transform="translate(260,184)"/>
<path d="M0 0 C2.625 0.375 2.625 0.375 5 1 C5 3.31 5 5.62 5 8 C2.625 8.625 2.625 8.625 0 9 C-2 7 -2 7 -2.25 4.5 C-2 2 -2 2 0 0 Z " fill="#C4C5CC" transform="translate(224,184)"/>
<path d="M0 0 C1.67542976 0.28604898 3.34385343 0.61781233 5 1 C5 3.31 5 5.62 5 8 C3.34385343 8.38218767 1.67542976 8.71395102 0 9 C-1 8 -1 8 -1.125 4.5 C-1 1 -1 1 0 0 Z " fill="#C8CAD0" transform="translate(232,220)"/>
<path d="M0 0 C1.67542976 0.28604898 3.34385343 0.61781233 5 1 C5 3.31 5 5.62 5 8 C3.34385343 8.38218767 1.67542976 8.71395102 0 9 C-1 8 -1 8 -1.125 4.5 C-1 1 -1 1 0 0 Z " fill="#C8CAD0" transform="translate(216,220)"/>
<path d="M0 0 C1.67542976 0.28604898 3.34385343 0.61781233 5 1 C5 3.31 5 5.62 5 8 C3.34385343 8.38218767 1.67542976 8.71395102 0 9 C-1 8 -1 8 -1.125 4.5 C-1 1 -1 1 0 0 Z " fill="#C8CAD0" transform="translate(292,208)"/>
<path d="M0 0 C1.67542976 0.28604898 3.34385343 0.61781233 5 1 C5 3.31 5 5.62 5 8 C3.34385343 8.38218767 1.67542976 8.71395102 0 9 C-1 8 -1 8 -1.125 4.5 C-1 1 -1 1 0 0 Z " fill="#C8CAD0" transform="translate(224,208)"/>
<path d="M0 0 C1.67542976 0.28604898 3.34385343 0.61781233 5 1 C5 3.31 5 5.62 5 8 C3.34385343 8.38218767 1.67542976 8.71395102 0 9 C-1 8 -1 8 -1.125 4.5 C-1 1 -1 1 0 0 Z " fill="#C8CAD0" transform="translate(300,196)"/>
<path d="M0 0 C1.67542976 0.28604898 3.34385343 0.61781233 5 1 C5 3.31 5 5.62 5 8 C3.34385343 8.38218767 1.67542976 8.71395102 0 9 C-1 8 -1 8 -1.125 4.5 C-1 1 -1 1 0 0 Z " fill="#C8CAD0" transform="translate(248,196)"/>
<path d="M0 0 C1.67542976 0.28604898 3.34385343 0.61781233 5 1 C5 3.31 5 5.62 5 8 C3.34385343 8.38218767 1.67542976 8.71395102 0 9 C-1 8 -1 8 -1.125 4.5 C-1 1 -1 1 0 0 Z " fill="#C8CAD0" transform="translate(232,184)"/>
<path d="M0 0 C0 2.97 0 5.94 0 9 C-0.99 9 -1.98 9 -3 9 C-3 7.35 -3 5.7 -3 4 C-3.66 4 -4.32 4 -5 4 C-5 3.34 -5 2.68 -5 2 C-2 0 -2 0 0 0 Z " fill="#E7E8EA" transform="translate(252,220)"/>
<path d="M0 0 C0 2.97 0 5.94 0 9 C-0.99 9 -1.98 9 -3 9 C-3 7.35 -3 5.7 -3 4 C-3.66 4 -4.32 4 -5 4 C-5 3.34 -5 2.68 -5 2 C-2 0 -2 0 0 0 Z " fill="#E7E8EA" transform="translate(244,220)"/>
<path d="M0 0 C0 2.97 0 5.94 0 9 C-0.99 9 -1.98 9 -3 9 C-3 7.35 -3 5.7 -3 4 C-3.66 4 -4.32 4 -5 4 C-5 3.34 -5 2.68 -5 2 C-2 0 -2 0 0 0 Z " fill="#E7E8EA" transform="translate(228,220)"/>
<path d="M0 0 C0 2.97 0 5.94 0 9 C-0.99 9 -1.98 9 -3 9 C-3 7.35 -3 5.7 -3 4 C-3.66 4 -4.32 4 -5 4 C-5 3.34 -5 2.68 -5 2 C-2 0 -2 0 0 0 Z " fill="#E7E8EA" transform="translate(212,220)"/>
<path d="M0 0 C0 2.97 0 5.94 0 9 C-0.99 9 -1.98 9 -3 9 C-3 7.35 -3 5.7 -3 4 C-3.66 4 -4.32 4 -5 4 C-5 3.34 -5 2.68 -5 2 C-2 0 -2 0 0 0 Z " fill="#E7E8EA" transform="translate(204,220)"/>
<path d="M0 0 C0 2.97 0 5.94 0 9 C-0.99 9 -1.98 9 -3 9 C-3 7.35 -3 5.7 -3 4 C-3.66 4 -4.32 4 -5 4 C-5 3.34 -5 2.68 -5 2 C-2 0 -2 0 0 0 Z " fill="#E7E8EA" transform="translate(304,208)"/>
<path d="M0 0 C0 2.97 0 5.94 0 9 C-0.99 9 -1.98 9 -3 9 C-3 7.35 -3 5.7 -3 4 C-3.66 4 -4.32 4 -5 4 C-5 3.34 -5 2.68 -5 2 C-2 0 -2 0 0 0 Z " fill="#E7E8EA" transform="translate(280,208)"/>
<path d="M0 0 C0 2.97 0 5.94 0 9 C-0.99 9 -1.98 9 -3 9 C-3 7.35 -3 5.7 -3 4 C-3.66 4 -4.32 4 -5 4 C-5 3.34 -5 2.68 -5 2 C-2 0 -2 0 0 0 Z " fill="#E7E8EA" transform="translate(272,208)"/>
<path d="M0 0 C0 2.97 0 5.94 0 9 C-0.99 9 -1.98 9 -3 9 C-3 7.35 -3 5.7 -3 4 C-3.66 4 -4.32 4 -5 4 C-5 3.34 -5 2.68 -5 2 C-2 0 -2 0 0 0 Z " fill="#E7E8EA" transform="translate(252,208)"/>
<path d="M0 0 C0 2.97 0 5.94 0 9 C-0.99 9 -1.98 9 -3 9 C-3 7.35 -3 5.7 -3 4 C-3.66 4 -4.32 4 -5 4 C-5 3.34 -5 2.68 -5 2 C-2 0 -2 0 0 0 Z " fill="#E7E8EA" transform="translate(236,208)"/>
<path d="M0 0 C0 2.97 0 5.94 0 9 C-0.99 9 -1.98 9 -3 9 C-3 7.35 -3 5.7 -3 4 C-3.66 4 -4.32 4 -5 4 C-5 3.34 -5 2.68 -5 2 C-2 0 -2 0 0 0 Z " fill="#E7E8EA" transform="translate(212,208)"/>
<path d="M0 0 C0 2.97 0 5.94 0 9 C-0.99 9 -1.98 9 -3 9 C-3 7.35 -3 5.7 -3 4 C-3.66 4 -4.32 4 -5 4 C-5 3.34 -5 2.68 -5 2 C-2 0 -2 0 0 0 Z " fill="#E7E8EA" transform="translate(204,208)"/>
<path d="M0 0 C0 2.97 0 5.94 0 9 C-0.99 9 -1.98 9 -3 9 C-3 7.35 -3 5.7 -3 4 C-3.66 4 -4.32 4 -5 4 C-5 3.34 -5 2.68 -5 2 C-2 0 -2 0 0 0 Z " fill="#E7E8EA" transform="translate(312,196)"/>
<path d="M0 0 C0 2.97 0 5.94 0 9 C-0.99 9 -1.98 9 -3 9 C-3 7.35 -3 5.7 -3 4 C-3.66 4 -4.32 4 -5 4 C-5 3.34 -5 2.68 -5 2 C-2 0 -2 0 0 0 Z " fill="#E7E8EA" transform="translate(288,196)"/>
<path d="M0 0 C0 2.97 0 5.94 0 9 C-0.99 9 -1.98 9 -3 9 C-3 7.35 -3 5.7 -3 4 C-3.66 4 -4.32 4 -5 4 C-5 3.34 -5 2.68 -5 2 C-2 0 -2 0 0 0 Z " fill="#E7E8EA" transform="translate(280,196)"/>
<path d="M0 0 C0 2.97 0 5.94 0 9 C-0.99 9 -1.98 9 -3 9 C-3 7.35 -3 5.7 -3 4 C-3.66 4 -4.32 4 -5 4 C-5 3.34 -5 2.68 -5 2 C-2 0 -2 0 0 0 Z " fill="#E7E8EA" transform="translate(272,196)"/>
<path d="M0 0 C0 2.97 0 5.94 0 9 C-0.99 9 -1.98 9 -3 9 C-3 7.35 -3 5.7 -3 4 C-3.66 4 -4.32 4 -5 4 C-5 3.34 -5 2.68 -5 2 C-2 0 -2 0 0 0 Z " fill="#E7E8EA" transform="translate(236,196)"/>
<path d="M0 0 C0 2.97 0 5.94 0 9 C-0.99 9 -1.98 9 -3 9 C-3 7.35 -3 5.7 -3 4 C-3.66 4 -4.32 4 -5 4 C-5 3.34 -5 2.68 -5 2 C-2 0 -2 0 0 0 Z " fill="#E7E8EA" transform="translate(228,196)"/>
<path d="M0 0 C0 2.97 0 5.94 0 9 C-0.99 9 -1.98 9 -3 9 C-3 7.35 -3 5.7 -3 4 C-3.66 4 -4.32 4 -5 4 C-5 3.34 -5 2.68 -5 2 C-2 0 -2 0 0 0 Z " fill="#E7E8EA" transform="translate(212,196)"/>
<path d="M0 0 C0 2.97 0 5.94 0 9 C-0.99 9 -1.98 9 -3 9 C-3 7.35 -3 5.7 -3 4 C-3.66 4 -4.32 4 -5 4 C-5 3.34 -5 2.68 -5 2 C-2 0 -2 0 0 0 Z " fill="#E7E8EA" transform="translate(204,196)"/>
<path d="M0 0 C0 2.97 0 5.94 0 9 C-0.99 9 -1.98 9 -3 9 C-3 7.35 -3 5.7 -3 4 C-3.66 4 -4.32 4 -5 4 C-5 3.34 -5 2.68 -5 2 C-2 0 -2 0 0 0 Z " fill="#E7E8EA" transform="translate(312,184)"/>
<path d="M0 0 C0 2.97 0 5.94 0 9 C-0.99 9 -1.98 9 -3 9 C-3 7.35 -3 5.7 -3 4 C-3.66 4 -4.32 4 -5 4 C-5 3.34 -5 2.68 -5 2 C-2 0 -2 0 0 0 Z " fill="#E7E8EA" transform="translate(304,184)"/>
<path d="M0 0 C0 2.97 0 5.94 0 9 C-0.99 9 -1.98 9 -3 9 C-3 7.35 -3 5.7 -3 4 C-3.66 4 -4.32 4 -5 4 C-5 3.34 -5 2.68 -5 2 C-2 0 -2 0 0 0 Z " fill="#E7E8EA" transform="translate(296,184)"/>
<path d="M0 0 C0 2.97 0 5.94 0 9 C-0.99 9 -1.98 9 -3 9 C-3 7.35 -3 5.7 -3 4 C-3.66 4 -4.32 4 -5 4 C-5 3.34 -5 2.68 -5 2 C-2 0 -2 0 0 0 Z " fill="#E7E8EA" transform="translate(280,184)"/>
<path d="M0 0 C0 2.97 0 5.94 0 9 C-0.99 9 -1.98 9 -3 9 C-3 7.35 -3 5.7 -3 4 C-3.66 4 -4.32 4 -5 4 C-5 3.34 -5 2.68 -5 2 C-2 0 -2 0 0 0 Z " fill="#E7E8EA" transform="translate(272,184)"/>
<path d="M0 0 C0 2.97 0 5.94 0 9 C-0.99 9 -1.98 9 -3 9 C-3 7.35 -3 5.7 -3 4 C-3.66 4 -4.32 4 -5 4 C-5 3.34 -5 2.68 -5 2 C-2 0 -2 0 0 0 Z " fill="#E7E8EA" transform="translate(252,184)"/>
<path d="M0 0 C0 2.97 0 5.94 0 9 C-0.99 9 -1.98 9 -3 9 C-3 7.35 -3 5.7 -3 4 C-3.66 4 -4.32 4 -5 4 C-5 3.34 -5 2.68 -5 2 C-2 0 -2 0 0 0 Z " fill="#E7E8EA" transform="translate(244,184)"/>
<path d="M0 0 C0 2.97 0 5.94 0 9 C-0.99 9 -1.98 9 -3 9 C-3 7.35 -3 5.7 -3 4 C-3.66 4 -4.32 4 -5 4 C-5 3.34 -5 2.68 -5 2 C-2 0 -2 0 0 0 Z " fill="#E7E8EA" transform="translate(220,184)"/>
<path d="M0 0 C0 2.97 0 5.94 0 9 C-0.99 9 -1.98 9 -3 9 C-3 7.35 -3 5.7 -3 4 C-3.66 4 -4.32 4 -5 4 C-5 3.34 -5 2.68 -5 2 C-2 0 -2 0 0 0 Z " fill="#E7E8EA" transform="translate(212,184)"/>
<path d="M0 0 C0 2.97 0 5.94 0 9 C-0.99 9 -1.98 9 -3 9 C-3 7.35 -3 5.7 -3 4 C-3.66 4 -4.32 4 -5 4 C-5 3.34 -5 2.68 -5 2 C-2 0 -2 0 0 0 Z " fill="#E7E8EA" transform="translate(204,184)"/>
<path d="M0 0 C0.33 0.99 0.66 1.98 1 3 C3.01508358 3.73323796 3.01508358 3.73323796 5 4 C4.125 8.75 4.125 8.75 3 11 C2.34 11 1.68 11 1 11 C0.67 7.37 0.34 3.74 0 0 Z " fill="#A3A6AF" transform="translate(192,205)"/>
<path d="M0 0 C0.99 0.33 1.98 0.66 3 1 C3.33 2.98 3.66 4.96 4 7 C3.34 6.67 2.68 6.34 2 6 C1.67 6.66 1.34 7.32 1 8 C0.34 8 -0.32 8 -1 8 C-1.125 2.25 -1.125 2.25 0 0 Z " fill="#A0A2AC" transform="translate(194,196)"/>
<path d="M0 0 C0.33 0 0.66 0 1 0 C0.67 2.97 0.34 5.94 0 9 C-0.66 8.01 -1.32 7.02 -2 6 C-3.32 6.99 -4.64 7.98 -6 9 C-4.47300326 5.56425733 -2.44973747 2.84485642 0 0 Z " fill="#C2C4CA" transform="translate(446,273)"/>
<path d="M0 0 C0.99 0.33 1.98 0.66 3 1 C3.33 2.98 3.66 4.96 4 7 C2.68 6.67 1.36 6.34 0 6 C0 4.02 0 2.04 0 0 Z " fill="#C1C3C9" transform="translate(194,220)"/>
<path d="" fill="#50535C" transform="translate(0,0)"/>
<path d="" fill="#4C5364" transform="translate(0,0)"/>
</svg>
